<?xml version="1.0" encoding="UTF-8"?>
<svg version="1.1" viewBox="0 0 2048 1143" width="668" height="373" xmlns="http://www.w3.org/2000/svg">
<path transform="translate(1223,521)" d="m0 0h16l11 4 9 6 8 8 7 11 6 12 5 15 3 15 2 20v30l-1 13v12l4 3 6 1h23l21-2 20-4 12-5 7-5 2-7 4-26 6-24 8-21 9-17 10-13 9-9 14-9 13-4h18l10 3 10 6 9 10 11 16 8 16 4 16 1 8v13l-3 18-6 16-8 14-11 13-6 7-10 7-13 6-14 4-12 3v8l5 25 6 17 6 10 6 7 10 6 6 2h11l14-7 10-9 7-8 9-14 8-16 10-28 4-8 4-4h7l5 3 3 3-1 9-11 26-10 20-10 17-11 14-15 15-14 10-14 7-9 2h-21l-17-5-13-7-12-11-7-8-9-14-7-14-7-21-4-22-1-10v-18l-18 8-22 5-21 3-13 1h-22l-3 1-4 10-6 20-8 20-10 19-10 15-11 13-10 9-14 9-11 5-12 3h-11l-13-3-19-9h-2v12l5 25 8 34 2 4 12-11 10-8 8-7 30-20 18-10 16-8 15-7 25-9 24-6 25-4h39l23 3 25 6 22 8 20 9 20 11 19 14 13 10 13 11 10 9 19 19 12 11 9 11 13 17 11 16 6 10v2l-17-1h-15l-21 2-24 5-29 9-42 18-26 12-34 16-33 14-28 10-21 6-16 3-18 2h-18l-17-2-20-5-15-6-19-10-14-10-7-6-4-5-8-7-11-11-7-8-12-15-12-17-3-4 1-3 23-10 27-10 25-8 26-6 29-4 11-1h36l33 3 40 5 9 1v-6l-25-4-37-5-23-2h-34l-27 3-34 7-26 8-38 14-19 8-4-1-6-10 1-5 8-8-1-6-10-18-11-27-10-30-7-27-7-36-4-29v-6h-2l-3 9-7 16-7 11-10 11-10 6-6 2h-14l-10-4-12-11-9-14-7-19-6-22-4-28-1-15v-25l2-28 4-29 6-26 6-10 5-4 2-1h13l8 5 5 10 1 15v101l2 28 4 25 4 17 1 2 5-1 7-7 12-21 6-15 6-19 4-13 2-54 3-34 4-18 7-14 7-7 9-4h9l7 3 7 6 4 7 1 4 1 79 2 44 3-1 13-48 10-34 10-25 9-17 10-17 7-9 12-12 10-6zm247 40-7 3-7 8-5 11-5 21-3 24v41l6 2 11-3 14-7 11-9 8-11 4-11 2-12v-17l-3-17-6-12-7-7-5-3zm-257 8-9 7-11 14-7 11-7 16-10 28-12 38v2l5-1 19-9 19-5 24-4 2-2v-54l-3-29-2-9-3-3zm5 121-25 4-13 4-16 8-9 8-5 10-4 15-1 7v17l4 10 6 8 7 4 4 1h10l7-4 10-9 9-12 8-16 7-17 4-17 2-12v-8z" fill="#030302"/>
<path transform="translate(524,355)" d="m0 0h16l10 3 11 7 8 8 10 15 8 19 4 18 2 18v39l-3 26-5 26-7 26-10 28-20 46-9 16-13 19-10 13-9 11-15 16-10 10-8 7-1 2 10 3 21 6 22 8 14 3h27l16-4 16-6 17-9 12-12 6-9 1-3v-47l4-30 6-26 7-20 8-16 7-11 8-10 10-9 10-6 10-4 4-1h16l10 3 10 6 10 9 9 12 11 20 4 15 1 7v20l-3 15-6 16-9 15-11 12-9 8-13 8-14 5-18 5 1 12 5 23 7 21 6 8 1 3 4 2 9 5 4 1h12l10-4 9-6 11-11 9-13 6-10 16-42 3-7 1-24 3-23 5-23 10-30 7-14 10-15 11-12 12-11 10-5 9-2h13l10 3 10 6 7 7 8 14 6 16 4 19 1 10v24l-2 10-4 7-6 4-7 1-8-4-4-8-1-5-2-30-3-12-7-14-4-1-4 5-8 16-6 20-4 25-2 22v47l3 26 5 20 5 12 8 9 8 1 6-4 6-12 4-14 4-13 6-9 4-3h8l6 4 2 3v8l-4 22-5 16-8 15-10 12-11 8-9 4-10 2h-8l-13-3-9-6-10-8-13-13-9-14-7-15-8-25v-3l-3 3-12 23-10 15-12 14-10 9-15 10-14 6-8 2h-22l-15-5-13-7-13-11-8-10-10-17-8-21-1-5-7 4-11 10-10 7-16 9-17 7-21 5-7 1h-21l-20-4-21-7-24-10-16-7-1 3 4 13 11 28 1 4v7l-4 8-8 5-3 1h-10l-10-5-6-5-9-11-10-14-10-18-18-50-15-53-7-29-6-34-4-34-1-17v-41l2-27 4-30 5-26 6-16 7-13 8-9 12-6h10l7 3 6 5 3 8-1 10-6 35-2 19-2 39v58l1 18 2 1 5-27 8-32 7-23 9-24 11-26 13-25 8-12 12-17 9-11 12-12 12-7zm-5 38-9 7-13 12-12 17-11 20-11 24-9 25-7 24-6 26-4 26-2 18-1 23v34l1 26 3 32 3 13 4-1 7-7 9-11 10-12 10-15 10-17 10-21 10-28 8-28 6-26 5-27 4-31 1-12v-46l-2-18-5-22-3-5zm201 168-7 3-4 5-7 17-4 19-3 26v38l3 2 9-1 19-10 12-11 7-11 4-10 2-10v-18l-4-16-6-11-5-6-8-5z" fill="#030302"/>
<path transform="translate(590,74)" d="m0 0 6 2 13 5 27 8 22 4 16 2 15 1h40l77-4 34-1h14l31 2 25 4 14 4 17 6 19 10 14 10 10 9 3 2v2h2l7 8 10 13 8 13 8 16 14 40 8 27v5l-1 1h-55l-25-2-27-4-27-6-31-9-12-5-29-15-23-13-23-11-1 1v5l16 9 29 16 21 11 31 12 24 7 27 6 21 3 24 2 24 1h39l2 6 1 10-4 3-20 9-16 7-19 7-28 9-28 7-27 5-25 3-15 1h-20l-25-2-22-4-19-5-22-8-17-8-17-10-12-9-20-18-20-20-7-8-11-13-11-17-12-21-11-22-12-30-10-31-6-24z" fill="#96C64A"/>
<path transform="translate(1341,792)" d="m0 0h39l23 3 25 6 22 8 20 9 20 11 19 14 13 10 13 11 10 9 19 19 12 11 9 11 13 17 11 16 6 10v2l-17-1h-15l-21 2-24 5-29 9-42 18-26 12-34 16-33 14-28 10-21 6-16 3-18 2h-18l-17-2-20-5-15-6-19-10-14-10-7-6-4-5-8-7-11-11-7-8-12-15-12-17-3-4 1-3 23-10 27-10 25-8 26-6 29-4 11-1h36l33 3 40 5 9 1v-6l-25-4-37-5-23-2h-34l-27 3-34 7-26 8-38 14-19 8-4-1-6-10 1-5 8-8 1-3 6-4 11-10 11-8 7-8 4-2 10-9 10-8 8-7 30-20 18-10 16-8 15-7 25-9 24-6z" fill="#96C64A"/>
<path transform="translate(660,778)" d="m0 0 2 1-26 32-13 18-14 21-14 24-18 35-8 22-5 19-3 20v20l4 20 5 13 9 16 12 13 7 6 22 13 16 8 16 5 20 3h38l25-3 34-7 36-10 42-12 28-11 41-17 26-11 36-16 33-15 16-8 36-17 44-20 4 1 5 8-1 3-19 9-16 8-15 8-17 8-19 10-29 15-36 17-42 19-30 12-24 8-20 8-36 12-36 10-34 7-23 3-12 1h-30l-22-3-19-5-18-8-15-9-12-9-13-11-6-5-9-12-8-16-3-9-3-20v-33l4-28 8-23 8-17 16-27 14-21 12-16 11-14 11-13 9-11h2l2-4z" fill="#060603"/>
<path transform="translate(1264,245)" d="m0 0h99l35 2 33 4 28 5 24 6 19 7 18 8 18 10 11 8 10 9 12 12 12 17 8 14 6 14 5 19 1 6v23l-4 18-6 17-9 17-12 17-11 13-23 23-14 11-17 13-4 1-2-4 1-4 11-10 8-7 12-11 11-11 9-11 8-10 9-14 8-15 6-17 3-17v-16l-4-18-6-15-8-15-10-13-10-12-14-11-16-10-24-11-18-6-36-8-37-5-38-3-21-1h-84l-87 4-104 6h-15l-3-9 1-4 110-10 55-4z" fill="#050503"/>
<path transform="translate(982,481)" d="m0 0 9 1 13 5 7-4 5-1 6 3 2 3v10l-8 17-8 11-6 4-3 1h-9l-8-4-6-7-4-10-1-4v-13l4-8z" fill="#030302"/>
<path transform="translate(660,778)" d="m0 0 2 1-7 9h-3l2-4z" fill="#2C3916"/>
</svg>
